<svg width="201" height="105" viewBox="0 0 201 105" fill="none" xmlns="http://www.w3.org/2000/svg">
<path d="M100.176 54.459L0.0670166 0.705078L65.1377 17.8975L100.176 54.459Z" fill="#5B5753"/>
<path d="M100.176 54.459L200.067 0.705078L135.138 17.8975L100.176 54.459Z" fill="#5B5753"/>
<path d="M109.448 23.0909C111.463 25.9179 111.903 27.4617 115.083 27.4617C116.427 27.4617 117.411 26.9862 118.034 26.0357C118.099 25.9373 118.459 25.0355 119.116 23.3311C119.476 22.3799 120.033 21.9052 120.787 21.9052C121.246 21.9052 121.476 22.2001 121.476 22.7901C121.476 24.5927 120.279 26.1171 117.886 27.3632C115.853 28.3789 114.49 28.8876 112.491 28.8876C108.754 28.8876 106.661 28.4193 104.271 25.4454C103.339 24.2864 101.903 21.6595 101.22 20.3385C100.783 19.4919 99.9583 18.1431 99.1782 17.3818C98.6182 16.8347 97.1716 15.9623 96.5494 15.9623C96.0898 15.9623 95.5424 15.8019 95.664 15.4704C95.8412 14.9879 96.6801 14.9956 97.8275 14.6345C101.728 13.3561 105.856 10.7827 105.856 6.91421C105.856 3.57049 103.872 1.89863 99.9057 1.89863C97.6761 1.89863 95.5782 2.34112 93.6113 3.22643C91.4799 4.17759 89.6395 5.52154 88.5257 7.2586C87.8044 8.40631 87.4438 9.39006 87.4438 10.2089C87.4438 10.4387 87.4845 10.7989 87.5668 11.2907C87.6485 11.7826 87.6898 12.1435 87.6898 12.3726C87.6898 12.9626 87.5255 13.2576 87.1982 13.2576C86.4113 13.2576 85.7229 12.8642 85.1329 12.0773C84.5429 11.2904 84.2479 10.4877 84.2479 9.66762C84.2479 6.88162 86.6124 4.6359 90.9073 2.93079C94.2833 1.58685 97.6274 0.914551 100.939 0.914551C103.233 0.914551 105.266 1.29185 107.036 2.04548C109.397 3.06215 110.577 4.57006 110.577 6.56951C110.577 8.92981 109.46 10.8557 107.282 12.4214C104.746 14.2439 101.991 14.1594 98.7131 15.4701C99.795 15.962 101.21 16.0029 104.005 17.5606C105.639 18.471 107.306 20.1642 107.971 21.0757C108.376 21.6337 109.086 22.5823 109.448 23.0909ZM98.0172 1.82213C96.4106 2.904 95.4601 6.40652 95.1651 9.71733C94.9685 12.8322 94.7548 15.9461 94.5257 19.0604C94.0338 22.7324 95.1657 25.4529 93.1333 27.2232C93.6252 27.2232 92.067 27.2232 93.2469 27.2232C94.2959 27.2561 95.1318 27.2722 95.7551 27.2722C96.0823 27.2722 96.2466 27.4197 96.2466 27.7147C96.2466 28.1081 96.0662 28.3047 95.7057 28.3047C95.2138 28.3047 94.4595 28.3047 93.4435 28.3047C92.4268 28.3047 91.6732 28.3047 91.1816 28.3047C90.3619 28.3047 89.1241 28.3047 87.469 28.3047C85.8133 28.3047 84.5755 28.3047 83.7564 28.3047C83.0679 28.3047 82.7236 28.1081 82.7236 27.7147C82.7236 27.3213 83.0186 27.1247 83.6086 27.1247C83.8377 27.1247 84.174 27.1909 84.6168 27.3213C85.0593 27.4526 85.395 27.5178 85.6248 27.5178C87.8208 27.5178 89.2467 25.1182 89.9029 20.3178C90.165 17.0855 90.4109 13.8363 90.6407 10.5707C91.1978 7.2076 93.509 3.27323 97.5741 1.37932L98.0172 1.82213Z" fill="#E4A337"/>
<path d="M101.521 76.0219C100.421 76.3495 99.1194 76.5137 97.6151 76.5137C95.7247 76.5137 94.1913 75.8918 93.0152 74.6479C91.8384 73.4037 91.2504 71.827 91.2504 69.9176C91.2504 66.6969 92.7931 64.0932 95.8793 62.1063C98.5791 60.3706 101.637 59.5027 105.05 59.5027C106.573 59.5027 107.336 59.8019 107.336 60.3996C107.336 60.4964 107.273 60.6936 107.148 60.9925C107.022 61.2917 106.949 61.4989 106.931 61.6145C106.853 62.1547 106.776 62.6947 106.699 63.2347C106.506 64.1026 106.275 64.5367 106.005 64.5367C105.581 64.5367 105.369 64.3911 105.369 64.0997C105.369 64.0028 105.416 63.7359 105.513 63.2986C105.609 62.8616 105.658 62.5166 105.658 62.2638C105.658 61.4873 105.387 60.9725 104.848 60.7198C104.501 60.5452 103.874 60.4574 102.968 60.4574C100.19 60.4574 98.604 61.3253 97.0034 63.0611C95.4023 64.7968 94.6022 67.0729 94.6022 69.8886C94.6022 71.7015 95.1179 73.1 96.1501 74.0834C97.1816 75.0668 98.0108 75.559 99.8434 75.559C100.441 75.559 101.039 75.4822 101.637 75.3289C101.907 73.7742 102.206 72.1624 102.534 70.4928C102.727 70.2242 102.968 69.9941 103.257 69.8021H103.2C102.91 69.8021 102.491 69.8598 101.941 69.9754C101.391 70.0913 100.981 70.149 100.712 70.149C100.576 70.149 100.393 70.1106 100.162 70.0335C99.9305 69.9567 99.8149 69.8698 99.8149 69.773C99.8149 69.5803 100.249 69.4838 101.117 69.4838C102.775 69.4838 103.642 69.4215 104.587 69.2957C105.532 69.1704 106.062 69.1078 106.178 69.1078C106.39 69.1078 106.496 69.1756 106.496 69.3102C106.496 69.407 106.226 69.59 105.686 69.8598C105.069 70.149 104.628 70.3482 104.57 70.4059C104.339 70.5989 103.96 72.1391 103.536 74.9355L103.421 75.4864" fill="#E4A337"/>
<path d="M33.3003 95.6746C32.5347 96.9942 31.4891 98.0707 30.1629 98.9053C28.8367 99.7406 27.4185 100.157 25.909 100.157C23.9072 100.157 22.2557 99.5099 20.9532 98.2146C19.6506 96.9193 19 95.3197 19 93.4146C19 91.1013 19.8793 89.091 21.6386 87.3836C23.3979 85.6763 25.3753 84.8232 27.5703 84.8232C29.5576 84.8232 31.2013 85.4758 32.4998 86.781C33.7984 88.0868 34.4477 89.6811 34.4477 91.5653C34.4477 92.9854 34.0652 94.355 33.3003 95.6746ZM31.1598 96.8431C32.6385 95.3263 33.3778 93.5808 33.3778 91.6066C33.3778 89.9729 32.8186 88.6066 31.7 87.5085C30.5815 86.411 29.1561 85.8622 27.4251 85.8622C25.5271 85.8622 23.8283 86.5996 22.3293 88.075C20.8296 89.5497 20.0798 91.3024 20.0798 93.3317C20.0798 94.98 20.641 96.3568 21.7628 97.4608C22.8853 98.5656 24.3113 99.1176 26.043 99.1176C27.9758 99.1182 29.6812 98.3599 31.1598 96.8431Z" fill="#5B5753"/>
<path d="M44.4001 98.2973C43.275 99.5374 41.9225 100.157 40.3433 100.157C39.1932 100.157 38.2258 99.7536 37.4399 98.9466C36.6539 98.1395 36.2609 97.0335 36.2609 95.6272C36.2609 94.9345 36.3404 94.2484 36.4994 93.5702C37.0258 91.1044 37.8933 89.2295 39.1019 87.944C40.3104 86.6599 41.7457 85.8752 43.4084 85.5913C44.1628 85.4671 44.8456 85.3068 45.4548 85.1129C46.0647 84.919 46.4906 84.7561 46.7331 84.6246L47.0656 84.4176L47.429 85.1655C46.6049 85.7333 45.2301 86.1939 43.3045 86.5475C42.0441 86.7762 40.8992 87.3959 39.8708 88.4073C38.8423 89.4181 38.12 90.7758 37.7047 92.4792C37.7461 92.4102 37.8105 92.3182 37.8966 92.2039C37.9827 92.0895 38.172 91.8871 38.4624 91.596C38.7536 91.3055 39.0545 91.0505 39.3661 90.8323C39.6776 90.6148 40.0745 90.4118 40.5555 90.2245C41.0366 90.0378 41.5269 89.9438 42.0257 89.9438C43.1337 89.9438 44.0879 90.3598 44.8877 91.1905C45.6875 92.0212 46.0877 93.0115 46.0877 94.1616C46.0884 95.6797 45.5258 97.0578 44.4001 98.2973ZM38.6655 92.4852C37.7132 93.5347 37.2374 94.6966 37.2374 95.9709C37.2374 96.8922 37.5522 97.6604 38.1825 98.2775C38.8127 98.894 39.5678 99.2022 40.4471 99.2022C41.611 99.2022 42.6789 98.7139 43.6515 97.7374C44.6248 96.7608 45.1111 95.5969 45.1111 94.2464C45.1111 93.3112 44.8029 92.522 44.1865 91.8779C43.57 91.2345 42.8222 90.9118 41.9422 90.9118C40.7106 90.9112 39.6177 91.4356 38.6655 92.4852Z" fill="#5B5753"/>
<path d="M49.482 91.0151C49.5793 90.904 49.7173 90.7654 49.8974 90.5991C50.0774 90.4328 50.4553 90.2114 51.0297 89.934C51.6047 89.6574 52.1896 89.5187 52.7857 89.5187C53.6098 89.5187 54.309 89.775 54.8841 90.2876C55.4591 90.7996 55.7463 91.3746 55.7463 92.012C55.7463 92.7461 55.5077 93.3415 55.03 93.7989C54.5515 94.2556 53.9699 94.5764 53.2845 94.7597C52.599 94.9431 51.9149 95.1133 51.2328 95.2684C50.5506 95.4241 49.9723 95.6719 49.4978 96.0116C49.0233 96.3514 48.7861 96.8049 48.7861 97.372C48.7861 97.8846 48.999 98.3177 49.4249 98.6712C49.8507 99.0242 50.4244 99.201 51.1441 99.201C51.6843 99.201 52.2093 99.0814 52.718 98.8428C53.2267 98.6042 53.6098 98.3637 53.8661 98.1206L54.2295 97.7565L54.8006 98.463C54.6902 98.5872 54.5358 98.7455 54.3386 98.9361C54.1415 99.126 53.7149 99.3777 53.0604 99.6892C52.4058 100.001 51.7322 100.157 51.0402 100.157C50.0912 100.157 49.3151 99.8956 48.7131 99.3731C48.1105 98.85 47.8095 98.2251 47.8095 97.4976C47.8095 96.8187 47.9791 96.2496 48.3182 95.7882C48.6579 95.3275 49.0851 95.0022 49.6016 94.8116C50.1175 94.6217 50.6788 94.4416 51.2847 94.2721C51.8906 94.1019 52.4518 93.9573 52.9677 93.8357C53.4836 93.7141 53.9114 93.5084 54.2512 93.218C54.5903 92.9268 54.7599 92.5463 54.7599 92.0751C54.7599 91.6526 54.5765 91.2819 54.2091 90.9638C53.8418 90.6451 53.3469 90.4854 52.7233 90.4854C52.2527 90.4854 51.7933 90.5873 51.3471 90.7923C50.9002 90.9967 50.5769 91.1991 50.3758 91.4002L50.0636 91.7117L49.482 91.0151Z" fill="#5B5753"/>
<path d="M59.1203 91.3996C60.2841 90.1667 61.6517 89.5503 63.2244 89.5503C64.54 89.5503 65.6395 90.0011 66.5228 90.9014C67.406 91.8018 67.8476 92.9098 67.8476 94.2261C67.8476 95.8395 67.2378 97.2314 66.0193 98.4019C64.8003 99.5723 63.4425 100.158 61.9468 100.158C60.6449 100.158 59.5573 99.707 58.6852 98.8067C57.8125 97.9063 57.3761 96.8056 57.3761 95.5037C57.3748 94 57.9564 92.6325 59.1203 91.3996ZM65.4108 97.7164C66.3972 96.7122 66.8908 95.5688 66.8908 94.2879C66.8908 93.2213 66.5326 92.321 65.8156 91.5869C65.0986 90.8528 64.2069 90.4854 63.1409 90.4854C61.9356 90.4854 60.8362 90.9737 59.8425 91.9503C58.8482 92.9262 58.3513 94.0829 58.3513 95.4196C58.3513 96.5006 58.7062 97.4043 59.416 98.1311C60.1258 98.858 61.0143 99.222 62.0809 99.222C63.3137 99.2227 64.4237 98.7199 65.4108 97.7164Z" fill="#5B5753"/>
<path d="M78.1286 95.2637H71.5318L70.5553 99.9494H69.5997L71.7711 89.7374H72.7272L71.7507 94.3081H78.3475L79.324 89.7374H80.2796L78.1083 99.9494H77.1527L78.1286 95.2637Z" fill="#5B5753"/>
<path d="M83.8283 90.7653C84.6597 90.0798 85.677 89.7374 86.8823 89.7374H91.1204L88.9491 99.9494H87.9936L88.773 96.2304H85.3136L82.3109 99.9494H81.0748L84.3469 96.0122C84.3055 95.9984 84.243 95.9708 84.1602 95.9287C84.0768 95.8873 83.9348 95.796 83.7344 95.6534C83.5333 95.5114 83.3552 95.3524 83.1994 95.1756C83.0443 94.9988 82.9017 94.753 82.7742 94.4383C82.6461 94.1235 82.5817 93.789 82.5817 93.4354C82.5817 92.3412 82.9977 91.4514 83.8283 90.7653ZM86.8409 90.693C85.8643 90.693 85.0744 90.9408 84.4724 91.4356C83.8698 91.9311 83.5688 92.5699 83.5688 93.3526C83.5688 93.9066 83.7594 94.364 84.1399 94.7241C84.521 95.0843 85.0678 95.2637 85.7815 95.2637H88.9715L89.9474 90.693H86.8409Z" fill="#5B5753"/>
<path d="M93.83 95.2636C93.8162 95.3746 93.809 95.5304 93.809 95.7315C93.809 96.6667 94.1362 97.4783 94.7908 98.1677C95.4453 98.8571 96.2471 99.2014 97.1954 99.2014C97.8605 99.2014 98.4907 99.0516 99.0861 98.7539C99.6815 98.4562 100.115 98.1585 100.385 97.8608L100.79 97.4139L101.361 98.0376C101.32 98.0928 101.258 98.1703 101.175 98.2709C101.092 98.3708 100.912 98.541 100.634 98.7795C100.358 99.0181 100.067 99.2297 99.7624 99.413C99.4574 99.5964 99.0631 99.7666 98.5775 99.9224C98.0931 100.077 97.6048 100.156 97.1126 100.156C95.9625 100.156 94.9689 99.7246 94.131 98.8617C93.2931 97.9995 92.8738 96.9657 92.8738 95.7604C92.8738 94.057 93.4837 92.5908 94.7021 91.3612C95.9211 90.1323 97.2749 89.5172 98.7648 89.5172C99.8866 89.5172 100.827 89.8826 101.585 90.6134C102.343 91.3435 102.722 92.3043 102.722 93.4964C102.722 93.9532 102.674 94.4001 102.576 94.8364L102.473 95.2616H93.83V95.2636ZM95.7674 91.6018C94.9189 92.3464 94.3386 93.2487 94.0271 94.3081H101.725C101.767 94.0518 101.788 93.806 101.788 93.5707C101.788 92.6631 101.494 91.9218 100.905 91.3474C100.316 90.7724 99.5678 90.4846 98.6609 90.4846C97.5799 90.4852 96.6151 90.8572 95.7674 91.6018Z" fill="#5B5753"/>
<path d="M107.165 91.6485L105.421 99.9494H104.464L106.636 89.7374H107.29L110.438 95.3787L116.017 89.7374H116.848L114.677 99.9494H113.721L115.466 91.6485L110.189 96.9677L107.165 91.6485Z" fill="#5B5753"/>
<path d="M128.841 89.7374C129.61 89.7374 130.25 89.9681 130.758 90.4281C131.267 90.8888 131.522 91.4238 131.522 92.033C131.522 92.2341 131.501 92.4299 131.459 92.6205C131.418 92.8104 131.362 92.9806 131.293 93.1291C131.224 93.2783 131.146 93.417 131.059 93.5445C130.973 93.6727 130.88 93.787 130.779 93.8875C130.679 93.9874 130.58 94.0794 130.483 94.1629C130.386 94.2457 130.291 94.3134 130.197 94.3653C130.103 94.4172 130.022 94.4639 129.953 94.506C129.884 94.5474 129.829 94.575 129.786 94.5888L129.735 94.6098C129.763 94.6236 129.806 94.6446 129.865 94.6722C129.923 94.6998 130.024 94.7675 130.166 94.8746C130.308 94.9824 130.432 95.104 130.54 95.2387C130.647 95.3734 130.745 95.5607 130.835 95.8C130.926 96.0385 130.971 96.3007 130.971 96.584C130.971 97.5881 130.641 98.4004 129.984 99.0201C129.326 99.6398 128.436 99.9501 127.313 99.9501H122.42L124.592 89.7381H128.841V89.7374ZM124.396 95.0567L123.575 98.9938H127.44C128.278 98.9938 128.913 98.7908 129.345 98.386C129.779 97.9811 129.995 97.4114 129.995 96.6766C129.995 96.1923 129.832 95.8006 129.507 95.5029C129.181 95.2052 128.714 95.056 128.104 95.056H124.396V95.0567ZM129.813 93.6017C130.302 93.2691 130.546 92.7605 130.546 92.075C130.546 91.6801 130.379 91.3508 130.047 91.0879C129.714 90.8251 129.265 90.693 128.696 90.693H125.33L124.613 94.1005H128.062C128.742 94.1005 129.325 93.9342 129.813 93.6017Z" fill="#5B5753"/>
<path d="M135.945 91.7632C135.986 91.708 136.047 91.6305 136.126 91.5299C136.206 91.43 136.379 91.2474 136.645 90.9845C136.912 90.7216 137.2 90.4949 137.508 90.3043C137.817 90.1137 138.208 89.935 138.682 89.7694C139.157 89.6037 139.64 89.5203 140.131 89.5203C141.212 89.5203 142.152 89.9527 142.952 90.8189C143.752 91.6844 144.152 92.7135 144.152 93.9043C144.152 95.594 143.535 97.0588 142.303 98.2989C141.07 99.539 139.743 100.159 138.324 100.159C137.825 100.159 137.361 100.077 136.932 99.9143C136.502 99.752 136.152 99.5581 135.882 99.3327C135.612 99.1073 135.382 98.8805 135.191 98.6525C135.001 98.4231 134.868 98.2332 134.792 98.0807L134.667 97.8211L133.264 104.418H132.309L135.436 89.7385H136.392L135.945 91.7632ZM136.667 92.1529C135.687 93.2642 135.197 94.4892 135.197 95.8259C135.197 96.7887 135.514 97.5918 136.147 98.2358C136.781 98.8799 137.538 99.2019 138.417 99.2019C139.54 99.2019 140.613 98.6807 141.638 97.6384C142.663 96.5962 143.175 95.3895 143.175 94.018C143.175 93.0414 142.864 92.2088 142.24 91.5194C141.617 90.83 140.886 90.4857 140.048 90.4857C138.774 90.4857 137.647 91.041 136.667 92.1529Z" fill="#5B5753"/>
<path d="M146.974 95.2636C146.96 95.3746 146.953 95.5304 146.953 95.7315C146.953 96.6667 147.28 97.4783 147.935 98.1677C148.589 98.8571 149.391 99.2014 150.339 99.2014C151.004 99.2014 151.635 99.0516 152.23 98.7539C152.825 98.4562 153.258 98.1585 153.529 97.8608L153.934 97.4139L154.505 98.0376C154.464 98.0928 154.402 98.1703 154.318 98.2709C154.236 98.3708 154.056 98.541 153.778 98.7795C153.502 99.0181 153.21 99.2297 152.906 99.413C152.601 99.5964 152.207 99.7666 151.721 99.9224C151.237 100.077 150.749 100.156 150.256 100.156C149.106 100.156 148.113 99.7246 147.275 98.8617C146.437 97.9995 146.018 96.9657 146.018 95.7604C146.018 94.057 146.627 92.5908 147.846 91.3612C149.065 90.1323 150.419 89.5172 151.909 89.5172C153.03 89.5172 153.971 89.8826 154.729 90.6134C155.487 91.3435 155.866 92.3043 155.866 93.4964C155.866 93.9532 155.817 94.4001 155.72 94.8364L155.617 95.2616H146.974V95.2636ZM148.911 91.6018C148.063 92.3464 147.483 93.2487 147.172 94.3081H154.87C154.911 94.0518 154.932 93.806 154.932 93.5707C154.932 92.6631 154.638 91.9218 154.049 91.3474C153.46 90.7724 152.712 90.4846 151.805 90.4846C150.724 90.4852 149.76 90.8572 148.911 91.6018Z" fill="#5B5753"/>
<path d="M160.309 91.6485L158.564 99.9494H157.608L159.78 89.7374H160.434L163.582 95.3787L169.161 89.7374H169.992L167.821 99.9494H166.865L168.61 91.6485L163.333 96.9677L160.309 91.6485Z" fill="#5B5753"/>
<path d="M173.541 90.7653C174.372 90.0798 175.39 89.7374 176.595 89.7374H180.833L178.662 99.9494H177.706L178.486 96.2304H175.025L172.023 99.9494H170.787L174.059 96.0122C174.018 95.9984 173.956 95.9708 173.873 95.9287C173.789 95.8873 173.647 95.796 173.447 95.6534C173.246 95.5114 173.068 95.3524 172.912 95.1756C172.757 94.9988 172.614 94.753 172.487 94.4383C172.359 94.1235 172.294 93.789 172.294 93.4354C172.294 92.3412 172.71 91.4514 173.541 90.7653ZM176.553 90.693C175.577 90.693 174.787 90.9408 174.185 91.4356C173.582 91.9311 173.281 92.5699 173.281 93.3526C173.281 93.9066 173.472 94.364 173.852 94.7241C174.234 95.0843 174.78 95.2637 175.494 95.2637H178.683L179.66 90.693H176.553Z" fill="#5B5753"/>
</svg>
